<svg xmlns="http://www.w3.org/2000/svg" xmlns:xlink="http://www.w3.org/1999/xlink" width="300" zoomAndPan="magnify" viewBox="0 0 224.87999 225" height="300" preserveAspectRatio="xMidYMid meet" version="1.0"><defs><filter x="0%" y="0%" width="100%" xlink:type="simple" xlink:actuate="onLoad" height="100%" id="id1" xlink:show="other"><feColorMatrix values="0 0 0 0 1 0 0 0 0 1 0 0 0 0 1 0 0 0 1 0" color-interpolation-filters="sRGB"/></filter><mask id="id2"><g filter="url(#id1)"><rect x="-22.487999" width="269.855988" fill="rgb(0%, 0%, 0%)" y="-22.5" height="270" fill-opacity="0.149"/></g></mask><clipPath id="id3"><path d="M 1 0.773438 L 206.164062 0.773438 L 206.164062 200.105469 L 1 200.105469 Z M 1 0.773438 " clip-rule="nonzero"/></clipPath><clipPath id="id4"><rect x="0" width="207" y="0" height="201"/></clipPath></defs><g mask="url(#id2)"><g transform="matrix(1, 0, 0, 1, 9, 12)"><g clip-path="url(#id4)"><g clip-path="url(#id3)"><path fill="rgb(36.468506%, 22.749329%, 18.818665%)" d="M 45.214844 196.902344 C 44.945312 198.421875 44.992188 199.96875 45.234375 199.992188 C 46.476562 200.128906 47.691406 199.792969 48.800781 199.078125 C 50.792969 197.792969 52.441406 195.28125 53.300781 192.085938 C 54.15625 188.890625 53.988281 185.890625 52.90625 183.785156 C 52.207031 182.417969 51.121094 181.425781 49.679688 180.996094 C 49.191406 180.847656 49.328125 182.785156 49.34375 182.96875 C 49.445312 183.984375 49.378906 185.15625 49.144531 186.488281 C 48.9375 187.664062 48.390625 189.179688 47.507812 191.039062 L 46.90625 192.292969 C 45.976562 194.25 45.410156 195.789062 45.214844 196.902344 Z M 48.703125 184.277344 C 49.097656 182.027344 49.191406 180.855469 48.773438 180.808594 C 47.519531 180.664062 46.292969 180.996094 45.171875 181.71875 C 43.183594 183.003906 41.53125 185.515625 40.675781 188.710938 C 39.816406 191.90625 39.988281 194.90625 41.066406 197.011719 C 41.796875 198.425781 42.933594 199.441406 44.449219 199.847656 C 44.851562 199.953125 44.757812 198.832031 44.710938 198.359375 C 44.617188 197.355469 44.527344 195.808594 44.714844 194.753906 C 44.9375 193.480469 45.539062 191.820312 46.511719 189.777344 L 47.171875 188.371094 C 48.027344 186.585938 48.535156 185.21875 48.703125 184.277344 Z M 119.816406 195.753906 C 119.164062 197.152344 118.804688 198.65625 119.03125 198.742188 C 120.199219 199.195312 121.460938 199.183594 122.714844 198.78125 C 124.972656 198.054688 127.21875 196.054688 128.875 193.1875 C 130.53125 190.324219 131.144531 187.382812 130.648438 185.070312 C 130.324219 183.570312 129.535156 182.328125 128.257812 181.539062 C 127.824219 181.273438 127.449219 183.179688 127.417969 183.359375 C 127.253906 184.367188 126.882812 185.484375 126.3125 186.710938 C 125.808594 187.789062 124.886719 189.113281 123.550781 190.679688 L 122.644531 191.738281 C 121.238281 193.386719 120.292969 194.726562 119.816406 195.753906 Z M 193.292969 184.390625 C 191.980469 182.519531 191.214844 181.625 190.886719 181.886719 C 189.894531 182.667969 189.265625 183.773438 188.988281 185.070312 C 188.488281 187.382812 189.101562 190.324219 190.761719 193.1875 C 192.417969 196.054688 194.664062 198.054688 196.917969 198.78125 C 198.4375 199.269531 199.960938 199.183594 201.320312 198.398438 C 201.679688 198.195312 200.820312 197.464844 200.453125 197.164062 C 199.675781 196.519531 198.515625 195.488281 197.898438 194.613281 C 197.15625 193.550781 196.402344 191.957031 195.644531 189.824219 L 195.113281 188.363281 C 194.453125 186.5 193.84375 185.175781 193.292969 184.390625 Z M 126.457031 184.460938 C 127.425781 182.386719 127.820312 181.277344 127.429688 181.125 C 126.253906 180.660156 124.980469 180.667969 123.714844 181.078125 C 121.457031 181.804688 119.210938 183.804688 117.554688 186.667969 C 115.898438 189.53125 115.285156 192.472656 115.78125 194.785156 C 116.117188 196.34375 116.953125 197.617188 118.3125 198.398438 C 118.671875 198.605469 118.875 197.5 118.953125 197.03125 C 119.121094 196.039062 119.4375 194.519531 119.890625 193.550781 C 120.4375 192.375 121.445312 190.925781 122.917969 189.207031 L 123.917969 188.019531 C 125.207031 186.511719 126.054688 185.324219 126.457031 184.460938 Z M 77.847656 187.007812 C 76.449219 186.355469 74.941406 186 74.851562 186.226562 C 74.398438 187.390625 74.410156 188.648438 74.816406 189.902344 C 75.542969 192.152344 77.546875 194.394531 80.417969 196.046875 C 83.289062 197.703125 86.234375 198.3125 88.554688 197.816406 C 90.058594 197.496094 91.300781 196.707031 92.09375 195.429688 C 92.359375 195 90.449219 194.625 90.269531 194.59375 C 89.257812 194.429688 88.140625 194.0625 86.914062 193.488281 C 85.828125 192.988281 84.503906 192.070312 82.933594 190.738281 L 81.871094 189.832031 C 80.21875 188.425781 78.878906 187.484375 77.847656 187.007812 Z M 4.425781 193.746094 C 3.160156 194.632812 2.097656 195.757812 2.25 195.945312 C 3.035156 196.921875 4.132812 197.539062 5.421875 197.816406 C 7.742188 198.3125 10.6875 197.699219 13.558594 196.046875 C 16.429688 194.394531 18.433594 192.152344 19.160156 189.902344 C 19.632812 188.4375 19.570312 186.96875 18.859375 185.648438 C 18.617188 185.203125 17.339844 186.664062 17.222656 186.808594 C 16.574219 187.597656 15.695312 188.378906 14.585938 189.15625 C 13.605469 189.839844 12.148438 190.527344 10.207031 191.21875 L 8.890625 191.683594 C 6.84375 192.410156 5.355469 193.097656 4.425781 193.746094 Z M 199.773438 195.78125 C 200.660156 197.042969 201.789062 198.105469 201.976562 197.953125 C 202.957031 197.167969 203.574219 196.074219 203.851562 194.785156 C 204.351562 192.472656 203.734375 189.53125 202.078125 186.667969 C 200.421875 183.804688 198.175781 181.804688 195.921875 181.078125 C 194.457031 180.605469 192.984375 180.667969 191.660156 181.378906 C 191.210938 181.617188 192.679688 182.894531 192.820312 183.011719 C 193.613281 183.660156 194.394531 184.535156 195.171875 185.644531 C 195.859375 186.617188 196.546875 188.074219 197.242188 190.011719 L 197.707031 191.324219 C 198.433594 193.367188 199.125 194.851562 199.773438 195.78125 Z M 165.855469 188.21875 C 168.113281 187.824219 169.285156 187.730469 169.332031 188.144531 C 169.476562 189.398438 169.144531 190.625 168.417969 191.738281 C 167.132812 193.726562 164.613281 195.371094 161.414062 196.226562 C 158.210938 197.085938 155.207031 196.914062 153.097656 195.835938 C 151.675781 195.109375 150.660156 193.972656 150.253906 192.460938 C 150.144531 192.0625 151.269531 192.15625 151.742188 192.199219 C 152.75 192.292969 154.300781 192.382812 155.355469 192.199219 C 156.632812 191.972656 158.296875 191.375 160.34375 190.402344 L 161.75 189.746094 C 163.542969 188.894531 164.910156 188.386719 165.855469 188.21875 Z M 15.839844 187.28125 C 17.714844 185.96875 18.613281 185.207031 18.351562 184.878906 C 17.566406 183.890625 16.460938 183.261719 15.15625 182.980469 C 12.839844 182.484375 9.894531 183.097656 7.023438 184.75 C 4.152344 186.40625 2.148438 188.644531 1.417969 190.898438 C 0.929688 192.414062 1.015625 193.933594 1.800781 195.289062 C 2.007812 195.648438 2.738281 194.789062 3.039062 194.421875 C 3.683594 193.648438 4.71875 192.488281 5.597656 191.875 C 6.660156 191.132812 8.257812 190.382812 10.394531 189.625 L 11.859375 189.097656 C 13.726562 188.433594 15.054688 187.828125 15.839844 187.28125 Z M 89.167969 193.636719 C 91.242188 194.601562 92.355469 194.996094 92.507812 194.605469 C 92.972656 193.429688 92.964844 192.164062 92.558594 190.898438 C 91.828125 188.648438 89.824219 186.40625 86.953125 184.753906 C 84.082031 183.097656 81.136719 182.484375 78.816406 182.984375 C 77.257812 183.316406 75.980469 184.152344 75.195312 185.507812 C 74.988281 185.867188 76.097656 186.066406 76.566406 186.148438 C 77.5625 186.316406 79.085938 186.628906 80.058594 187.082031 C 81.234375 187.628906 82.683594 188.636719 84.410156 190.101562 L 85.597656 191.101562 C 87.109375 192.386719 88.296875 193.230469 89.167969 193.636719 Z M 153.203125 191.699219 C 151.679688 191.964844 150.132812 191.921875 150.105469 191.679688 C 149.96875 190.4375 150.308594 189.226562 151.023438 188.121094 C 152.3125 186.132812 154.828125 184.484375 158.03125 183.628906 C 161.230469 182.773438 164.238281 182.945312 166.347656 184.023438 C 167.71875 184.722656 168.710938 185.804688 169.144531 187.242188 C 169.292969 187.726562 167.351562 187.597656 167.167969 187.578125 C 166.148438 187.476562 164.972656 187.542969 163.640625 187.777344 C 162.464844 187.984375 160.945312 188.527344 159.082031 189.410156 L 157.824219 190.007812 C 155.859375 190.9375 154.320312 191.503906 153.203125 191.699219 Z M 81.910156 160.285156 C 81.644531 161.800781 81.6875 163.347656 81.929688 163.375 C 83.175781 163.507812 84.390625 163.171875 85.5 162.457031 C 87.488281 161.175781 89.140625 158.660156 89.996094 155.464844 C 90.855469 152.273438 90.6875 149.273438 89.605469 147.167969 C 88.902344 145.800781 87.816406 144.804688 86.378906 144.375 C 85.890625 144.226562 86.023438 146.164062 86.042969 146.347656 C 86.144531 147.363281 86.074219 148.539062 85.839844 149.871094 C 85.632812 151.042969 85.089844 152.558594 84.207031 154.417969 L 83.605469 155.671875 C 82.671875 157.632812 82.109375 159.167969 81.910156 160.285156 Z M 12.003906 159.898438 C 12.402344 162.152344 12.492188 163.324219 12.078125 163.371094 C 10.820312 163.515625 9.59375 163.179688 8.476562 162.457031 C 6.484375 161.175781 4.835938 158.660156 3.976562 155.464844 C 3.121094 152.273438 3.289062 149.273438 4.371094 147.167969 C 5.097656 145.75 6.238281 144.734375 7.753906 144.332031 C 8.152344 144.222656 8.058594 145.34375 8.015625 145.816406 C 7.921875 146.820312 7.832031 148.367188 8.015625 149.421875 C 8.242188 150.699219 8.839844 152.355469 9.8125 154.398438 L 10.476562 155.804688 C 11.328125 157.59375 11.835938 158.957031 12.003906 159.898438 Z M 85.398438 147.660156 C 85.796875 145.40625 85.890625 144.234375 85.472656 144.1875 C 84.214844 144.042969 82.988281 144.378906 81.871094 145.101562 C 79.878906 146.382812 78.230469 148.898438 77.371094 152.089844 C 76.515625 155.285156 76.683594 158.285156 77.765625 160.390625 C 78.492188 161.808594 79.632812 162.824219 81.148438 163.226562 C 81.546875 163.335938 81.457031 162.210938 81.410156 161.738281 C 81.316406 160.738281 81.226562 159.191406 81.410156 158.136719 C 81.636719 156.859375 82.234375 155.199219 83.210938 153.15625 L 83.871094 151.753906 C 84.722656 149.964844 85.234375 148.601562 85.398438 147.660156 Z M 8.515625 147.273438 C 8.25 145.753906 8.292969 144.210938 8.535156 144.183594 C 9.78125 144.046875 10.996094 144.382812 12.105469 145.101562 C 14.09375 146.382812 15.746094 148.898438 16.601562 152.089844 C 17.460938 155.285156 17.289062 158.285156 16.210938 160.390625 C 15.507812 161.757812 14.421875 162.75 12.984375 163.183594 C 12.496094 163.328125 12.628906 161.390625 12.648438 161.207031 C 12.746094 160.195312 12.679688 159.019531 12.445312 157.6875 C 12.238281 156.515625 11.695312 155 10.808594 153.140625 L 10.210938 151.882812 C 9.277344 149.925781 8.714844 148.390625 8.515625 147.273438 Z M 159.789062 146.953125 C 159.589844 144.675781 159.375 143.519531 158.960938 143.582031 C 157.710938 143.765625 156.613281 144.410156 155.71875 145.394531 C 154.128906 147.148438 153.1875 150 153.1875 153.308594 C 153.1875 156.617188 154.128906 159.46875 155.71875 161.222656 C 156.789062 162.40625 158.152344 163.089844 159.722656 163.089844 C 160.136719 163.089844 159.757812 162.03125 159.589844 161.585938 C 159.238281 160.640625 158.75 159.171875 158.65625 158.105469 C 158.542969 156.8125 158.691406 155.054688 159.101562 152.832031 L 159.375 151.304688 C 159.738281 149.355469 159.875 147.90625 159.789062 146.953125 Z M 159.699219 160.050781 C 159.832031 161.585938 160.277344 163.066406 160.515625 163.03125 C 161.753906 162.839844 162.839844 162.203125 163.726562 161.222656 C 165.316406 159.46875 166.257812 156.617188 166.257812 153.308594 C 166.257812 150 165.316406 147.148438 163.726562 145.394531 C 162.691406 144.253906 161.386719 143.574219 159.882812 143.527344 C 159.375 143.515625 160.007812 145.351562 160.070312 145.523438 C 160.433594 146.476562 160.671875 147.628906 160.792969 148.976562 C 160.894531 150.164062 160.761719 151.769531 160.390625 153.792969 L 160.136719 155.160156 C 159.742188 157.292969 159.597656 158.921875 159.699219 160.050781 Z M 40.234375 153.753906 C 38.695312 153.890625 37.207031 154.332031 37.246094 154.570312 C 37.4375 155.808594 38.078125 156.890625 39.054688 157.773438 C 40.816406 159.363281 43.675781 160.300781 46.988281 160.300781 C 50.300781 160.300781 53.160156 159.363281 54.921875 157.773438 C 56.0625 156.742188 56.742188 155.441406 56.789062 153.941406 C 56.804688 153.433594 54.964844 154.0625 54.789062 154.128906 C 53.835938 154.488281 52.679688 154.726562 51.332031 154.847656 C 50.140625 154.949219 48.53125 154.816406 46.503906 154.449219 L 45.132812 154.191406 C 42.996094 153.800781 41.363281 153.65625 40.234375 153.753906 Z M 129.15625 151.601562 C 131.414062 151.203125 132.585938 151.109375 132.636719 151.527344 C 132.78125 152.78125 132.445312 154.003906 131.722656 155.121094 C 130.433594 157.105469 127.917969 158.753906 124.714844 159.609375 C 121.515625 160.464844 118.507812 160.296875 116.398438 159.21875 C 114.976562 158.492188 113.960938 157.355469 113.554688 155.839844 C 113.449219 155.441406 114.570312 155.535156 115.046875 155.578125 C 116.050781 155.675781 117.601562 155.765625 118.660156 155.578125 C 119.9375 155.355469 121.597656 154.753906 123.644531 153.785156 L 125.054688 153.125 C 126.847656 152.273438 128.214844 151.765625 129.15625 151.601562 Z M 190.285156 151.601562 C 188.027344 151.203125 186.855469 151.109375 186.808594 151.527344 C 186.664062 152.78125 187 154.003906 187.722656 155.121094 C 189.007812 157.105469 191.527344 158.753906 194.726562 159.609375 C 197.929688 160.464844 200.933594 160.296875 203.042969 159.21875 C 204.464844 158.492188 205.480469 157.355469 205.886719 155.839844 C 205.996094 155.441406 204.871094 155.535156 204.398438 155.578125 C 203.390625 155.675781 201.839844 155.765625 200.785156 155.578125 C 199.507812 155.355469 197.84375 154.753906 195.796875 153.785156 L 194.390625 153.125 C 192.597656 152.273438 191.230469 151.765625 190.285156 151.601562 Z M 116.503906 155.078125 C 114.984375 155.347656 113.433594 155.304688 113.40625 155.0625 C 113.273438 153.816406 113.609375 152.605469 114.328125 151.5 C 115.613281 149.511719 118.132812 147.867188 121.332031 147.011719 C 124.535156 146.15625 127.539062 146.324219 129.648438 147.402344 C 131.019531 148.101562 132.015625 149.1875 132.449219 150.621094 C 132.59375 151.109375 130.652344 150.976562 130.46875 150.957031 C 129.453125 150.855469 128.277344 150.925781 126.941406 151.160156 C 125.765625 151.363281 124.246094 151.910156 122.382812 152.789062 L 121.125 153.390625 C 119.164062 154.320312 117.621094 154.882812 116.503906 155.078125 Z M 202.9375 155.078125 C 204.460938 155.347656 206.007812 155.304688 206.035156 155.0625 C 206.171875 153.816406 205.832031 152.605469 205.117188 151.5 C 203.832031 149.511719 201.3125 147.867188 198.109375 147.011719 C 194.910156 146.15625 191.902344 146.324219 189.792969 147.402344 C 188.421875 148.101562 187.429688 149.1875 186.996094 150.621094 C 186.847656 151.109375 188.789062 150.976562 188.972656 150.957031 C 189.992188 150.855469 191.167969 150.925781 192.5 151.160156 C 193.675781 151.363281 195.195312 151.910156 197.058594 152.789062 L 198.316406 153.390625 C 200.28125 154.320312 201.820312 154.882812 202.9375 155.078125 Z M 53.355469 153.847656 C 55.636719 153.648438 56.796875 153.433594 56.734375 153.019531 C 56.550781 151.769531 55.90625 150.675781 54.921875 149.785156 C 53.160156 148.199219 50.300781 147.257812 46.988281 147.257812 C 43.675781 147.257812 40.816406 148.199219 39.054688 149.785156 C 37.875 150.851562 37.1875 152.214844 37.1875 153.78125 C 37.1875 154.191406 38.246094 153.8125 38.695312 153.648438 C 39.640625 153.296875 41.113281 152.808594 42.183594 152.714844 C 43.476562 152.601562 45.238281 152.75 47.464844 153.160156 L 48.996094 153.433594 C 50.949219 153.792969 52.402344 153.929688 53.355469 153.847656 Z M 48.703125 123.28125 C 49.097656 125.53125 49.191406 126.703125 48.773438 126.75 C 47.519531 126.894531 46.292969 126.558594 45.171875 125.839844 C 43.183594 124.554688 41.53125 122.042969 40.675781 118.847656 C 39.816406 115.652344 39.988281 112.652344 41.066406 110.546875 C 41.796875 109.128906 42.933594 108.117188 44.449219 107.710938 C 44.851562 107.605469 44.757812 108.726562 44.710938 109.199219 C 44.617188 110.203125 44.527344 111.75 44.714844 112.804688 C 44.9375 114.078125 45.539062 115.738281 46.511719 117.78125 L 47.171875 119.183594 C 48.027344 120.972656 48.535156 122.339844 48.703125 123.28125 Z M 45.214844 110.652344 C 44.945312 109.136719 44.992188 107.589844 45.234375 107.5625 C 46.476562 107.429688 47.691406 107.765625 48.800781 108.480469 C 50.792969 109.765625 52.441406 112.277344 53.300781 115.472656 C 54.15625 118.664062 53.988281 121.664062 52.90625 123.769531 C 52.207031 125.136719 51.121094 126.132812 49.679688 126.5625 C 49.191406 126.710938 49.328125 124.773438 49.34375 124.589844 C 49.445312 123.574219 49.378906 122.402344 49.144531 121.070312 C 48.9375 119.894531 48.390625 118.378906 47.507812 116.519531 L 46.90625 115.265625 C 45.976562 113.308594 45.410156 111.769531 45.214844 110.652344 Z M 193.019531 122.515625 C 192.367188 123.914062 192.011719 125.417969 192.238281 125.503906 C 193.402344 125.957031 194.664062 125.945312 195.921875 125.542969 C 198.179688 124.816406 200.425781 122.8125 202.078125 119.949219 C 203.738281 117.085938 204.351562 114.144531 203.855469 111.832031 C 203.53125 110.328125 202.738281 109.089844 201.460938 108.300781 C 201.027344 108.035156 200.652344 109.941406 200.625 110.121094 C 200.460938 111.128906 200.089844 112.246094 199.515625 113.46875 C 199.011719 114.550781 198.09375 115.875 196.757812 117.441406 L 195.851562 118.5 C 194.445312 120.148438 193.5 121.488281 193.019531 122.515625 Z M 119.898438 111.152344 C 118.585938 109.28125 117.820312 108.386719 117.492188 108.644531 C 116.5 109.429688 115.871094 110.53125 115.589844 111.832031 C 115.09375 114.144531 115.707031 117.085938 117.363281 119.949219 C 119.023438 122.8125 121.265625 124.816406 123.523438 125.542969 C 125.042969 126.03125 126.566406 125.945312 127.925781 125.160156 C 128.285156 124.953125 127.425781 124.226562 127.058594 123.925781 C 126.277344 123.28125 125.121094 122.25 124.503906 121.375 C 123.757812 120.3125 123.007812 118.71875 122.246094 116.585938 L 121.71875 115.125 C 121.054688 113.261719 120.449219 111.9375 119.898438 111.152344 Z M 199.664062 111.21875 C 200.632812 109.148438 201.023438 108.039062 200.632812 107.886719 C 199.457031 107.421875 198.1875 107.429688 196.917969 107.835938 C 194.664062 108.5625 192.417969 110.566406 190.761719 113.429688 C 189.105469 116.292969 188.492188 119.234375 188.988281 121.546875 C 189.324219 123.101562 190.160156 124.378906 191.519531 125.160156 C 191.878906 125.367188 192.078125 124.261719 192.160156 123.792969 C 192.328125 122.796875 192.640625 121.28125 193.09375 120.308594 C 193.644531 119.136719 194.652344 117.6875 196.121094 115.964844 L 197.125 114.78125 C 198.414062 113.273438 199.257812 112.085938 199.664062 111.21875 Z M 4.453125 113.957031 C 3.050781 113.304688 1.542969 112.949219 1.457031 113.175781 C 1.003906 114.339844 1.015625 115.597656 1.417969 116.851562 C 2.148438 119.105469 4.152344 121.34375 7.023438 123 C 9.894531 124.652344 12.839844 125.265625 15.15625 124.769531 C 16.664062 124.445312 17.90625 123.65625 18.695312 122.382812 C 18.964844 121.949219 17.054688 121.574219 16.871094 121.546875 C 15.863281 121.378906 14.746094 121.011719 13.515625 120.441406 C 12.433594 119.9375 11.109375 119.019531 9.539062 117.6875 L 8.476562 116.78125 C 6.824219 115.378906 5.480469 114.4375 4.453125 113.957031 Z M 77.824219 120.507812 C 76.558594 121.394531 75.492188 122.515625 75.644531 122.707031 C 76.429688 123.679688 77.527344 124.300781 78.816406 124.578125 C 81.136719 125.074219 84.082031 124.460938 86.953125 122.808594 C 89.824219 121.152344 91.828125 118.914062 92.558594 116.660156 C 93.03125 115.199219 92.964844 113.730469 92.253906 112.410156 C 92.011719 111.960938 90.734375 113.425781 90.617188 113.570312 C 89.96875 114.359375 89.089844 115.140625 87.980469 115.917969 C 87.003906 116.601562 85.542969 117.289062 83.601562 117.980469 L 82.285156 118.441406 C 80.238281 119.167969 78.753906 119.859375 77.824219 120.507812 Z M 126.378906 122.539062 C 127.265625 123.804688 128.394531 124.863281 128.582031 124.710938 C 129.558594 123.929688 130.179688 122.835938 130.457031 121.546875 C 130.953125 119.234375 130.339844 116.292969 128.683594 113.429688 C 127.027344 110.566406 124.78125 108.5625 122.527344 107.835938 C 121.058594 107.367188 119.589844 107.429688 118.265625 108.140625 C 117.816406 108.378906 119.285156 109.65625 119.425781 109.773438 C 120.21875 110.417969 121 111.296875 121.777344 112.402344 C 122.464844 113.378906 123.152344 114.835938 123.84375 116.773438 L 124.308594 118.085938 C 125.039062 120.128906 125.726562 121.613281 126.378906 122.539062 Z M 153.589844 114.980469 C 151.332031 114.582031 150.15625 114.492188 150.109375 114.90625 C 149.964844 116.160156 150.300781 117.382812 151.023438 118.5 C 152.3125 120.488281 154.828125 122.132812 158.03125 122.988281 C 161.230469 123.84375 164.238281 123.675781 166.347656 122.597656 C 167.765625 121.871094 168.785156 120.734375 169.191406 119.222656 C 169.296875 118.824219 168.171875 118.914062 167.699219 118.960938 C 166.695312 119.054688 165.144531 119.144531 164.085938 118.957031 C 162.808594 118.734375 161.144531 118.136719 159.097656 117.164062 L 157.691406 116.503906 C 155.898438 115.65625 154.53125 115.144531 153.589844 114.980469 Z M 89.234375 114.042969 C 91.109375 112.730469 92.007812 111.964844 91.746094 111.636719 C 90.960938 110.648438 89.855469 110.023438 88.554688 109.742188 C 86.234375 109.246094 83.289062 109.859375 80.417969 111.511719 C 77.546875 113.164062 75.542969 115.40625 74.816406 117.65625 C 74.324219 119.171875 74.410156 120.695312 75.195312 122.050781 C 75.402344 122.410156 76.132812 121.550781 76.4375 121.183594 C 77.078125 120.40625 78.113281 119.25 78.992188 118.636719 C 80.054688 117.894531 81.652344 117.144531 83.789062 116.386719 L 85.253906 115.859375 C 87.121094 115.195312 88.449219 114.589844 89.234375 114.042969 Z M 15.773438 120.585938 C 17.847656 121.550781 18.957031 121.945312 19.113281 121.554688 C 19.578125 120.382812 19.570312 119.113281 19.160156 117.847656 C 18.433594 115.597656 16.429688 113.355469 13.558594 111.703125 C 10.6875 110.050781 7.742188 109.4375 5.421875 109.933594 C 3.863281 110.269531 2.585938 111.101562 1.800781 112.460938 C 1.59375 112.816406 2.703125 113.019531 3.171875 113.097656 C 4.167969 113.265625 5.691406 113.578125 6.664062 114.03125 C 7.839844 114.578125 9.289062 115.585938 11.015625 117.050781 L 12.203125 118.054688 C 13.714844 119.339844 14.902344 120.183594 15.773438 120.585938 Z M 166.242188 118.460938 C 167.761719 118.726562 169.3125 118.683594 169.335938 118.441406 C 169.472656 117.199219 169.136719 115.988281 168.417969 114.878906 C 167.132812 112.894531 164.613281 111.246094 161.414062 110.390625 C 158.210938 109.535156 155.207031 109.703125 153.097656 110.78125 C 151.726562 111.484375 150.730469 112.566406 150.296875 114.003906 C 150.152344 114.488281 152.089844 114.355469 152.273438 114.339844 C 153.292969 114.238281 154.46875 114.304688 155.804688 114.539062 C 156.980469 114.746094 158.5 115.289062 160.363281 116.171875 L 161.621094 116.769531 C 163.582031 117.699219 165.121094 118.261719 166.242188 118.460938 Z M 161.96875 90.273438 C 162.234375 91.789062 162.191406 93.335938 161.949219 93.363281 C 160.703125 93.496094 159.488281 93.160156 158.378906 92.445312 C 156.386719 91.164062 154.738281 88.648438 153.882812 85.457031 C 153.023438 82.261719 153.191406 79.261719 154.273438 77.15625 C 154.976562 75.789062 156.0625 74.796875 157.5 74.363281 C 157.988281 74.214844 157.855469 76.152344 157.835938 76.335938 C 157.734375 77.351562 157.800781 78.527344 158.039062 79.859375 C 158.242188 81.03125 158.789062 82.546875 159.671875 84.40625 L 160.273438 85.660156 C 161.203125 87.621094 161.769531 89.15625 161.96875 90.273438 Z M 158.480469 77.648438 C 158.082031 75.394531 157.988281 74.222656 158.40625 74.175781 C 159.664062 74.03125 160.890625 74.367188 162.007812 75.089844 C 163.996094 76.371094 165.648438 78.886719 166.507812 82.078125 C 167.363281 85.273438 167.195312 88.273438 166.113281 90.378906 C 165.386719 91.796875 164.246094 92.808594 162.730469 93.214844 C 162.332031 93.324219 162.421875 92.203125 162.46875 91.726562 C 162.5625 90.726562 162.652344 89.179688 162.464844 88.125 C 162.242188 86.847656 161.644531 85.1875 160.667969 83.144531 L 160.007812 81.742188 C 159.15625 79.953125 158.644531 78.589844 158.480469 77.648438 Z M 87.367188 89.121094 C 88.019531 90.519531 88.375 92.023438 88.148438 92.113281 C 86.980469 92.566406 85.71875 92.554688 84.464844 92.148438 C 82.207031 91.421875 79.960938 89.421875 78.304688 86.558594 C 76.648438 83.695312 76.035156 80.753906 76.53125 78.441406 C 76.855469 76.9375 77.648438 75.699219 78.925781 74.910156 C 79.359375 74.640625 79.730469 76.546875 79.761719 76.730469 C 79.925781 77.734375 80.296875 78.851562 80.867188 80.078125 C 81.375 81.160156 82.292969 82.480469 83.628906 84.050781 L 84.535156 85.105469 C 85.941406 86.757812 86.886719 88.097656 87.367188 89.121094 Z M 13.886719 77.761719 C 15.199219 75.886719 15.964844 74.992188 16.292969 75.253906 C 17.285156 76.039062 17.914062 77.140625 18.195312 78.441406 C 18.691406 80.753906 18.078125 83.695312 16.421875 86.558594 C 14.761719 89.421875 12.519531 91.421875 10.261719 92.148438 C 8.742188 92.636719 7.21875 92.550781 5.859375 91.769531 C 5.5 91.5625 6.359375 90.835938 6.726562 90.53125 C 7.507812 89.890625 8.664062 88.859375 9.28125 87.980469 C 10.027344 86.921875 10.777344 85.324219 11.539062 83.195312 L 12.066406 81.734375 C 12.730469 79.867188 13.335938 78.542969 13.886719 77.761719 Z M 80.722656 77.828125 C 79.753906 75.757812 79.359375 74.648438 79.75 74.492188 C 80.925781 74.03125 82.199219 74.035156 83.464844 74.445312 C 85.722656 75.171875 87.96875 77.171875 89.625 80.035156 C 91.28125 82.902344 91.894531 85.84375 91.398438 88.15625 C 91.0625 89.710938 90.226562 90.984375 88.867188 91.769531 C 88.507812 91.976562 88.304688 90.867188 88.226562 90.398438 C 88.058594 89.40625 87.746094 87.886719 87.289062 86.917969 C 86.742188 85.746094 85.734375 84.296875 84.261719 82.574219 L 83.261719 81.386719 C 81.972656 79.882812 81.128906 78.695312 80.722656 77.828125 Z M 129.332031 80.375 C 130.734375 79.726562 132.242188 79.367188 132.328125 79.59375 C 132.78125 80.757812 132.769531 82.015625 132.367188 83.269531 C 131.636719 85.523438 129.632812 87.761719 126.761719 89.417969 C 123.890625 91.070312 120.945312 91.683594 118.628906 91.1875 C 117.121094 90.863281 115.878906 90.074219 115.089844 88.800781 C 114.820312 88.367188 116.730469 87.992188 116.914062 87.964844 C 117.921875 87.796875 119.039062 87.429688 120.269531 86.859375 C 121.351562 86.355469 122.675781 85.4375 124.25 84.105469 L 125.308594 83.199219 C 126.960938 81.796875 128.304688 80.855469 129.332031 80.375 Z M 202.753906 87.117188 C 204.019531 88 205.082031 89.125 204.929688 89.316406 C 204.144531 90.289062 203.046875 90.910156 201.757812 91.183594 C 199.441406 91.683594 196.492188 91.070312 193.625 89.414062 C 190.753906 87.761719 188.746094 85.519531 188.019531 83.269531 C 187.546875 81.808594 187.609375 80.339844 188.320312 79.019531 C 188.5625 78.570312 189.84375 80.035156 189.960938 80.175781 C 190.605469 80.964844 191.484375 81.75 192.597656 82.523438 C 193.574219 83.207031 195.035156 83.894531 196.976562 84.585938 L 198.289062 85.050781 C 200.335938 85.777344 201.824219 86.464844 202.753906 87.117188 Z M 7.40625 89.148438 C 6.519531 90.410156 5.390625 91.472656 5.203125 91.320312 C 4.226562 90.539062 3.605469 89.441406 3.328125 88.15625 C 2.832031 85.84375 3.445312 82.902344 5.101562 80.035156 C 6.757812 77.171875 9.003906 75.171875 11.261719 74.445312 C 12.726562 73.972656 14.199219 74.035156 15.519531 74.746094 C 15.96875 74.988281 14.503906 76.265625 14.359375 76.378906 C 13.570312 77.027344 12.785156 77.902344 12.007812 79.011719 C 11.320312 79.988281 10.632812 81.445312 9.941406 83.382812 L 9.476562 84.695312 C 8.746094 86.734375 8.058594 88.222656 7.40625 89.148438 Z M 41.324219 81.589844 C 39.070312 81.191406 37.894531 81.097656 37.847656 81.515625 C 37.703125 82.769531 38.039062 83.992188 38.761719 85.109375 C 40.046875 87.09375 42.566406 88.742188 45.769531 89.597656 C 48.96875 90.453125 51.976562 90.285156 54.085938 89.207031 C 55.503906 88.480469 56.523438 87.34375 56.929688 85.828125 C 57.035156 85.429688 55.910156 85.523438 55.4375 85.566406 C 54.433594 85.664062 52.882812 85.753906 51.824219 85.566406 C 50.546875 85.34375 48.882812 84.746094 46.835938 83.773438 L 45.429688 83.113281 C 43.636719 82.261719 42.269531 81.753906 41.324219 81.589844 Z M 191.339844 80.648438 C 189.464844 79.335938 188.570312 78.574219 188.832031 78.246094 C 189.617188 77.257812 190.722656 76.628906 192.023438 76.351562 C 194.339844 75.855469 197.289062 76.464844 200.15625 78.121094 C 203.027344 79.773438 205.035156 82.015625 205.761719 84.265625 C 206.25 85.78125 206.164062 87.300781 205.378906 88.660156 C 205.171875 89.015625 204.445312 88.15625 204.140625 87.792969 C 203.496094 87.015625 202.464844 85.859375 201.585938 85.242188 C 200.523438 84.5 198.921875 83.75 196.785156 82.992188 L 195.324219 82.464844 C 193.453125 81.804688 192.125 81.199219 191.339844 80.648438 Z M 118.015625 87.003906 C 115.9375 87.96875 114.828125 88.363281 114.671875 87.972656 C 114.207031 86.800781 114.214844 85.53125 114.625 84.265625 C 115.351562 82.015625 117.355469 79.773438 120.226562 78.121094 C 123.097656 76.46875 126.042969 75.855469 128.363281 76.351562 C 129.921875 76.6875 131.199219 77.523438 131.984375 78.878906 C 132.191406 79.234375 131.082031 79.4375 130.613281 79.515625 C 129.617188 79.683594 128.09375 80 127.125 80.449219 C 125.945312 80.996094 124.496094 82.003906 122.769531 83.472656 L 121.582031 84.472656 C 120.070312 85.757812 118.882812 86.601562 118.015625 87.003906 Z M 53.976562 85.066406 C 55.5 85.335938 57.046875 85.292969 57.074219 85.050781 C 57.210938 83.808594 56.875 82.59375 56.15625 81.488281 C 54.871094 79.5 52.351562 77.855469 49.152344 77 C 45.949219 76.144531 42.945312 76.3125 40.832031 77.390625 C 39.460938 78.089844 38.46875 79.175781 38.035156 80.609375 C 37.886719 81.097656 39.828125 80.964844 40.011719 80.945312 C 41.03125 80.84375 42.207031 80.914062 43.542969 81.148438 C 44.71875 81.351562 46.238281 81.898438 48.097656 82.777344 L 49.359375 83.378906 C 51.320312 84.308594 52.859375 84.871094 53.976562 85.066406 Z M 125.269531 53.652344 C 125.535156 55.171875 125.492188 56.71875 125.25 56.742188 C 124.003906 56.878906 122.789062 56.542969 121.679688 55.828125 C 119.691406 54.542969 118.039062 52.03125 117.183594 48.835938 C 116.324219 45.640625 116.496094 42.640625 117.574219 40.535156 C 118.277344 39.167969 119.363281 38.175781 120.800781 37.742188 C 121.289062 37.597656 121.15625 39.535156 121.136719 39.71875 C 121.039062 40.734375 121.105469 41.90625 121.339844 43.238281 C 121.546875 44.410156 122.089844 45.929688 122.976562 47.785156 L 123.574219 49.042969 C 124.507812 51 125.070312 52.535156 125.269531 53.652344 Z M 195.175781 53.269531 C 194.78125 55.519531 194.6875 56.691406 195.105469 56.738281 C 196.359375 56.882812 197.585938 56.546875 198.707031 55.828125 C 200.695312 54.542969 202.34375 52.03125 203.203125 48.835938 C 204.0625 45.640625 203.890625 42.640625 202.808594 40.535156 C 202.082031 39.121094 200.945312 38.105469 199.429688 37.699219 C 199.027344 37.59375 199.121094 38.714844 199.164062 39.1875 C 199.261719 40.191406 199.351562 41.738281 199.164062 42.792969 C 198.9375 44.066406 198.339844 45.726562 197.367188 47.769531 L 196.707031 49.175781 C 195.851562 50.960938 195.34375 52.324219 195.175781 53.269531 Z M 121.78125 41.027344 C 121.382812 38.777344 121.292969 37.605469 121.707031 37.554688 C 122.964844 37.410156 124.191406 37.746094 125.308594 38.46875 C 127.300781 39.753906 128.949219 42.265625 129.808594 45.460938 C 130.664062 48.652344 130.496094 51.652344 129.414062 53.757812 C 128.6875 55.175781 127.546875 56.191406 126.03125 56.597656 C 125.632812 56.703125 125.726562 55.582031 125.769531 55.109375 C 125.867188 54.105469 125.953125 52.558594 125.769531 51.503906 C 125.542969 50.226562 124.945312 48.570312 123.972656 46.527344 L 123.308594 45.121094 C 122.457031 43.332031 121.949219 41.96875 121.78125 41.027344 Z M 198.664062 40.644531 C 198.933594 39.125 198.886719 37.578125 198.644531 37.550781 C 197.398438 37.417969 196.1875 37.753906 195.078125 38.46875 C 193.085938 39.753906 191.4375 42.265625 190.578125 45.460938 C 189.71875 48.652344 189.890625 51.652344 190.972656 53.757812 C 191.671875 55.125 192.757812 56.121094 194.199219 56.550781 C 194.683594 56.699219 194.550781 54.761719 194.535156 54.578125 C 194.433594 53.5625 194.5 52.390625 194.734375 51.058594 C 194.941406 49.882812 195.488281 48.367188 196.371094 46.507812 L 196.972656 45.253906 C 197.902344 43.296875 198.46875 41.757812 198.664062 40.644531 Z M 47.390625 40.324219 C 47.589844 38.046875 47.804688 36.890625 48.21875 36.953125 C 49.472656 37.136719 50.566406 37.777344 51.460938 38.761719 C 53.050781 40.515625 53.992188 43.371094 53.992188 46.675781 C 53.992188 49.984375 53.050781 52.839844 51.460938 54.59375 C 50.390625 55.773438 49.027344 56.460938 47.457031 56.460938 C 47.042969 56.460938 47.425781 55.398438 47.589844 54.953125 C 47.941406 54.011719 48.429688 52.539062 48.523438 51.472656 C 48.636719 50.183594 48.488281 48.425781 48.078125 46.199219 L 47.804688 44.671875 C 47.445312 42.726562 47.304688 41.277344 47.390625 40.324219 Z M 47.484375 53.417969 C 47.347656 54.953125 46.90625 56.4375 46.664062 56.398438 C 45.425781 56.207031 44.339844 55.570312 43.453125 54.59375 C 41.863281 52.839844 40.921875 49.984375 40.921875 46.675781 C 40.921875 43.371094 41.863281 40.515625 43.453125 38.761719 C 44.488281 37.621094 45.792969 36.945312 47.296875 36.898438 C 47.804688 36.882812 47.171875 38.71875 47.109375 38.890625 C 46.746094 39.847656 46.507812 40.996094 46.390625 42.34375 C 46.285156 43.53125 46.417969 45.136719 46.789062 47.160156 L 47.042969 48.527344 C 47.4375 50.660156 47.582031 52.289062 47.484375 53.417969 Z M 166.949219 47.121094 C 168.488281 47.257812 169.972656 47.699219 169.933594 47.941406 C 169.742188 49.175781 169.105469 50.257812 168.125 51.144531 C 166.367188 52.730469 163.507812 53.667969 160.191406 53.667969 C 156.878906 53.667969 154.019531 52.730469 152.261719 51.144531 C 151.117188 50.113281 150.4375 48.808594 150.390625 47.3125 C 150.375 46.804688 152.21875 47.433594 152.390625 47.5 C 153.347656 47.859375 154.5 48.097656 155.851562 48.214844 C 157.039062 48.320312 158.648438 48.1875 160.675781 47.816406 L 162.046875 47.5625 C 164.183594 47.171875 165.816406 47.023438 166.949219 47.121094 Z M 78.023438 44.96875 C 75.765625 44.574219 74.59375 44.480469 74.542969 44.894531 C 74.398438 46.148438 74.734375 47.371094 75.460938 48.488281 C 76.746094 50.476562 79.265625 52.121094 82.464844 52.976562 C 85.667969 53.832031 88.671875 53.664062 90.78125 52.585938 C 92.203125 51.859375 93.21875 50.722656 93.625 49.210938 C 93.734375 48.8125 92.609375 48.902344 92.136719 48.949219 C 91.128906 49.042969 89.578125 49.132812 88.523438 48.949219 C 87.246094 48.722656 85.582031 48.125 83.535156 47.152344 L 82.125 46.492188 C 80.335938 45.644531 78.96875 45.132812 78.023438 44.96875 Z M 16.894531 44.96875 C 19.152344 44.574219 20.324219 44.480469 20.375 44.894531 C 20.519531 46.148438 20.183594 47.371094 19.460938 48.488281 C 18.171875 50.476562 15.652344 52.121094 12.453125 52.976562 C 9.25 53.832031 6.246094 53.664062 4.136719 52.585938 C 2.714844 51.859375 1.699219 50.722656 1.292969 49.210938 C 1.1875 48.8125 2.308594 48.902344 2.785156 48.949219 C 3.789062 49.042969 5.339844 49.132812 6.394531 48.949219 C 7.675781 48.722656 9.335938 48.125 11.382812 47.152344 L 12.792969 46.492188 C 14.582031 45.644531 15.949219 45.132812 16.894531 44.96875 Z M 90.675781 48.449219 C 92.199219 48.714844 93.746094 48.671875 93.773438 48.429688 C 93.90625 47.1875 93.570312 45.976562 92.855469 44.867188 C 91.566406 42.882812 89.050781 41.234375 85.847656 40.378906 C 82.648438 39.523438 79.640625 39.691406 77.53125 40.773438 C 76.160156 41.472656 75.164062 42.554688 74.734375 43.988281 C 74.585938 44.476562 76.527344 44.34375 76.710938 44.328125 C 77.726562 44.226562 78.902344 44.292969 80.238281 44.527344 C 81.414062 44.734375 82.933594 45.277344 84.796875 46.160156 L 86.054688 46.757812 C 88.015625 47.6875 89.558594 48.253906 90.675781 48.449219 Z M 4.242188 48.449219 C 2.722656 48.714844 1.171875 48.671875 1.144531 48.429688 C 1.011719 47.1875 1.347656 45.976562 2.0625 44.867188 C 3.351562 42.882812 5.867188 41.234375 9.070312 40.378906 C 12.269531 39.523438 15.277344 39.691406 17.386719 40.773438 C 18.757812 41.472656 19.753906 42.554688 20.1875 43.988281 C 20.332031 44.476562 18.390625 44.34375 18.207031 44.328125 C 17.191406 44.226562 16.015625 44.292969 14.679688 44.527344 C 13.503906 44.734375 11.984375 45.277344 10.121094 46.160156 L 8.863281 46.757812 C 6.902344 47.6875 5.359375 48.253906 4.242188 48.449219 Z M 153.824219 47.21875 C 151.542969 47.015625 150.382812 46.804688 150.445312 46.390625 C 150.628906 45.140625 151.273438 44.046875 152.261719 43.15625 C 154.019531 41.566406 156.878906 40.628906 160.191406 40.628906 C 163.507812 40.628906 166.367188 41.566406 168.125 43.15625 C 169.308594 44.222656 169.996094 45.582031 169.996094 47.148438 C 169.996094 47.5625 168.933594 47.183594 168.488281 47.015625 C 167.539062 46.664062 166.066406 46.179688 164.996094 46.085938 C 163.703125 45.972656 161.941406 46.121094 159.714844 46.53125 L 158.183594 46.804688 C 156.230469 47.160156 154.777344 47.300781 153.824219 47.21875 Z M 158.480469 16.648438 C 158.082031 18.902344 157.988281 20.074219 158.40625 20.121094 C 159.664062 20.265625 160.890625 19.929688 162.007812 19.207031 C 163.996094 17.921875 165.648438 15.410156 166.507812 12.214844 C 167.363281 9.019531 167.195312 6.023438 166.113281 3.917969 C 165.386719 2.5 164.246094 1.484375 162.730469 1.078125 C 162.332031 0.972656 162.421875 2.09375 162.46875 2.566406 C 162.5625 3.570312 162.652344 5.117188 162.464844 6.171875 C 162.242188 7.449219 161.644531 9.105469 160.667969 11.148438 L 160.007812 12.554688 C 159.15625 14.34375 158.644531 15.707031 158.480469 16.648438 Z M 161.96875 4.023438 C 162.234375 2.503906 162.191406 0.957031 161.949219 0.933594 C 160.703125 0.796875 159.488281 1.132812 158.378906 1.847656 C 156.386719 3.132812 154.738281 5.644531 153.882812 8.839844 C 153.023438 12.035156 153.191406 15.035156 154.273438 17.140625 C 154.976562 18.507812 156.0625 19.5 157.5 19.933594 C 157.988281 20.078125 157.855469 18.140625 157.835938 17.957031 C 157.734375 16.941406 157.800781 15.769531 158.039062 14.4375 C 158.242188 13.265625 158.789062 11.746094 159.671875 9.890625 L 160.273438 8.632812 C 161.203125 6.675781 161.769531 5.140625 161.96875 4.023438 Z M 14.160156 15.882812 C 14.8125 17.28125 15.171875 18.785156 14.945312 18.875 C 13.777344 19.324219 12.515625 19.316406 11.257812 18.910156 C 9.003906 18.183594 6.757812 16.183594 5.101562 13.320312 C 3.441406 10.457031 2.828125 7.515625 3.328125 5.199219 C 3.648438 3.699219 4.441406 2.460938 5.71875 1.671875 C 6.152344 1.402344 6.527344 3.308594 6.554688 3.492188 C 6.722656 4.496094 7.089844 5.613281 7.664062 6.839844 C 8.167969 7.917969 9.085938 9.242188 10.421875 10.808594 L 11.328125 11.867188 C 12.738281 13.519531 13.679688 14.855469 14.160156 15.882812 Z M 87.28125 4.523438 C 88.597656 2.648438 89.359375 1.753906 89.691406 2.015625 C 90.679688 2.800781 91.308594 3.902344 91.589844 5.199219 C 92.085938 7.515625 91.472656 10.457031 89.816406 13.320312 C 88.160156 16.183594 85.914062 18.183594 83.65625 18.910156 C 82.136719 19.398438 80.613281 19.3125 79.253906 18.53125 C 78.898438 18.324219 79.757812 17.59375 80.125 17.292969 C 80.902344 16.652344 82.0625 15.621094 82.675781 14.742188 C 83.421875 13.683594 84.171875 12.085938 84.933594 9.953125 L 85.460938 8.496094 C 86.125 6.628906 86.730469 5.304688 87.28125 4.523438 Z M 7.515625 4.589844 C 6.550781 2.515625 6.15625 1.410156 6.546875 1.253906 C 7.722656 0.789062 8.992188 0.796875 10.261719 1.207031 C 12.515625 1.933594 14.761719 3.933594 16.417969 6.796875 C 18.078125 9.660156 18.691406 12.601562 18.191406 14.914062 C 17.859375 16.472656 17.019531 17.746094 15.660156 18.53125 C 15.304688 18.734375 15.101562 17.628906 15.023438 17.160156 C 14.855469 16.167969 14.539062 14.648438 14.085938 13.679688 C 13.539062 12.503906 12.527344 11.058594 11.058594 9.335938 L 10.054688 8.148438 C 8.769531 6.640625 7.921875 5.457031 7.515625 4.589844 Z M 202.726562 7.328125 C 204.128906 6.675781 205.636719 6.316406 205.722656 6.542969 C 206.175781 7.710938 206.167969 8.96875 205.761719 10.222656 C 205.035156 12.472656 203.027344 14.714844 200.15625 16.367188 C 197.289062 18.019531 194.339844 18.632812 192.023438 18.136719 C 190.515625 17.8125 189.273438 17.023438 188.484375 15.75 C 188.214844 15.316406 190.125 14.941406 190.308594 14.914062 C 191.316406 14.75 192.433594 14.378906 193.664062 13.808594 C 194.746094 13.304688 196.074219 12.386719 197.644531 11.054688 L 198.703125 10.152344 C 200.355469 8.746094 201.699219 7.804688 202.726562 7.328125 Z M 129.359375 13.875 C 130.625 14.761719 131.6875 15.886719 131.535156 16.078125 C 130.75 17.050781 129.652344 17.667969 128.363281 17.945312 C 126.042969 18.441406 123.097656 17.832031 120.226562 16.175781 C 117.355469 14.523438 115.351562 12.28125 114.625 10.03125 C 114.152344 8.570312 114.214844 7.101562 114.925781 5.777344 C 115.167969 5.332031 116.445312 6.796875 116.5625 6.9375 C 117.210938 7.726562 118.089844 8.507812 119.199219 9.285156 C 120.179688 9.96875 121.636719 10.65625 123.578125 11.347656 L 124.894531 11.8125 C 126.941406 12.539062 128.429688 13.226562 129.359375 13.875 Z M 80.800781 15.910156 C 79.914062 17.171875 78.789062 18.234375 78.597656 18.082031 C 77.621094 17.296875 77 16.203125 76.722656 14.914062 C 76.226562 12.601562 76.839844 9.660156 78.496094 6.796875 C 80.152344 3.933594 82.398438 1.933594 84.65625 1.207031 C 86.121094 0.734375 87.59375 0.796875 88.914062 1.507812 C 89.363281 1.746094 87.898438 3.023438 87.753906 3.140625 C 86.964844 3.789062 86.179688 4.664062 85.402344 5.773438 C 84.71875 6.75 84.027344 8.207031 83.335938 10.144531 L 82.871094 11.457031 C 82.140625 13.496094 81.453125 14.980469 80.800781 15.910156 Z M 53.59375 8.347656 C 55.847656 7.953125 57.023438 7.859375 57.070312 8.277344 C 57.214844 9.53125 56.878906 10.753906 56.15625 11.871094 C 54.871094 13.855469 52.351562 15.5 49.152344 16.359375 C 45.949219 17.214844 42.945312 17.042969 40.832031 15.964844 C 39.414062 15.242188 38.398438 14.105469 37.992188 12.589844 C 37.882812 12.191406 39.007812 12.285156 39.480469 12.328125 C 40.488281 12.425781 42.035156 12.511719 43.09375 12.328125 C 44.371094 12.101562 46.035156 11.503906 48.082031 10.53125 L 49.488281 9.875 C 51.28125 9.023438 52.648438 8.515625 53.59375 8.347656 Z M 117.945312 7.410156 C 116.070312 6.097656 115.171875 5.335938 115.433594 5.007812 C 116.21875 4.019531 117.324219 3.390625 118.628906 3.113281 C 120.945312 2.613281 123.890625 3.226562 126.761719 4.878906 C 129.632812 6.535156 131.636719 8.773438 132.367188 11.027344 C 132.855469 12.542969 132.769531 14.0625 131.984375 15.421875 C 131.777344 15.777344 131.046875 14.917969 130.746094 14.554688 C 130.101562 13.777344 129.066406 12.621094 128.1875 12.003906 C 127.125 11.261719 125.527344 10.511719 123.390625 9.753906 L 121.929688 9.226562 C 120.058594 8.566406 118.730469 7.957031 117.945312 7.410156 Z M 191.410156 13.953125 C 189.332031 14.921875 188.222656 15.3125 188.066406 14.925781 C 187.601562 13.75 187.609375 12.480469 188.019531 11.21875 C 188.746094 8.964844 190.753906 6.726562 193.625 5.070312 C 196.492188 3.417969 199.441406 2.804688 201.757812 3.300781 C 203.316406 3.636719 204.59375 4.472656 205.378906 5.828125 C 205.585938 6.1875 204.476562 6.386719 204.007812 6.464844 C 203.011719 6.636719 201.492188 6.949219 200.519531 7.398438 C 199.34375 7.949219 197.890625 8.953125 196.164062 10.421875 L 194.976562 11.421875 C 193.46875 12.707031 192.277344 13.550781 191.410156 13.953125 Z M 40.941406 11.828125 C 39.417969 12.097656 37.871094 12.050781 37.84375 11.808594 C 37.707031 10.566406 38.042969 9.355469 38.761719 8.25 C 40.046875 6.261719 42.566406 4.617188 45.769531 3.761719 C 48.96875 2.902344 51.976562 3.074219 54.085938 4.152344 C 55.457031 4.851562 56.449219 5.9375 56.882812 7.371094 C 57.03125 7.859375 55.089844 7.726562 54.90625 7.707031 C 53.886719 7.605469 52.710938 7.671875 51.378906 7.90625 C 50.199219 8.113281 48.679688 8.660156 46.820312 9.539062 L 45.5625 10.140625 C 43.597656 11.070312 42.058594 11.632812 40.941406 11.828125 " fill-opacity="1" fill-rule="evenodd"/></g></g></g></g></svg>