<svg xmlns="http://www.w3.org/2000/svg" xmlns:xlink="http://www.w3.org/1999/xlink" width="500" zoomAndPan="magnify" viewBox="0 0 375 374.999991" height="500" preserveAspectRatio="xMidYMid meet" version="1.0"><defs><g/><clipPath id="id1"><path d="M 45.332031 54 L 278 54 L 278 255 L 45.332031 255 Z M 45.332031 54 " clip-rule="nonzero"/></clipPath></defs><path fill="rgb(36.468506%, 22.749329%, 18.818665%)" d="M 302.945312 209.992188 C 301.097656 210.359375 299.214844 210.25 297.339844 209.742188 C 310.539062 205.90625 318.402344 179.148438 316.09375 157.726562 C 314.679688 144.589844 309.75 136.382812 303.035156 132.210938 C 311.132812 135.117188 317.574219 143.054688 319.992188 157.445312 C 323.632812 179.128906 316.773438 207.246094 302.945312 209.992188 Z M 299.304688 127.382812 C 298.886719 125.082031 297.652344 123.136719 295.957031 121.789062 C 294.886719 114.921875 293.171875 108.0625 290.785156 101.273438 C 269.746094 41.464844 204.289062 10.0625 144.582031 31.136719 C 130.101562 36.246094 117.292969 43.972656 106.492188 53.597656 C 107.796875 54.804688 108.820312 56.328125 109.433594 58.070312 C 109.824219 59.179688 110.039062 60.347656 110.066406 61.53125 L 110.570312 83.261719 C 121.453125 70.460938 135.757812 60.285156 152.726562 54.292969 C 203.984375 36.203125 260.179688 63.160156 278.242188 114.503906 C 279.375 117.722656 280.332031 120.960938 281.113281 124.207031 C 279.859375 126.132812 279.304688 128.519531 279.75 130.960938 C 268.734375 136.554688 262.242188 148.371094 265.671875 167.195312 C 270.007812 190.96875 288.523438 216.917969 304.976562 213.910156 C 321.433594 210.902344 329.59375 180.070312 325.261719 156.292969 C 321.828125 137.46875 311.589844 128.71875 299.304688 127.382812 " fill-opacity="1" fill-rule="nonzero"/><g clip-path="url(#id1)"><path fill="rgb(36.468506%, 22.749329%, 18.818665%)" d="M 49.859375 120.269531 L 48.070312 64.679688 C 47.953125 61.445312 50.386719 58.625 53.609375 58.421875 C 55.15625 58.324219 56.597656 58.828125 57.707031 59.726562 C 57.707031 59.726562 51.945312 59.113281 52.03125 65.863281 L 52.777344 121.480469 C 52.878906 128.921875 56.664062 135.445312 62.367188 139.34375 C 55.214844 135.933594 50.160156 128.746094 49.859375 120.269531 Z M 271.75 194.589844 C 260.515625 215.167969 241.953125 231.824219 218.132812 240.230469 C 166.875 258.324219 110.679688 231.367188 92.617188 180.019531 C 88.902344 169.453125 87.09375 158.675781 87.007812 148.066406 C 87.386719 147.167969 87.589844 146.175781 87.566406 145.132812 C 99.15625 142.164062 107.601562 131.5 107.3125 119.003906 L 105.980469 61.628906 C 105.890625 57.632812 102.527344 54.488281 98.519531 54.691406 C 94.65625 54.886719 91.703125 58.230469 91.792969 62.105469 L 92.625 97.980469 C 92.683594 100.519531 90.628906 102.617188 88.070312 102.585938 C 85.632812 102.558594 83.691406 100.523438 83.632812 98.082031 L 82.800781 62.167969 C 82.707031 58.175781 79.347656 55.027344 75.339844 55.230469 C 71.476562 55.425781 68.519531 58.773438 68.609375 62.648438 L 69.441406 98.519531 C 69.5 101.058594 67.445312 103.15625 64.886719 103.125 C 62.453125 103.09375 60.507812 101.0625 60.453125 98.621094 L 59.617188 62.707031 C 59.527344 58.714844 56.164062 55.566406 52.15625 55.769531 C 48.292969 55.96875 45.335938 59.3125 45.425781 63.183594 L 46.753906 120.414062 C 47.042969 132.910156 55.976562 143.167969 67.695312 145.597656 C 67.714844 146.632812 67.964844 147.613281 68.382812 148.488281 C 69.15625 158.199219 71.179688 167.96875 74.5625 177.589844 C 95.601562 237.398438 161.0625 268.800781 220.769531 247.722656 C 244.996094 239.171875 264.550781 223.296875 277.835938 203.449219 C 275.675781 200.761719 273.625 197.773438 271.75 194.589844 " fill-opacity="1" fill-rule="nonzero"/></g><path fill="rgb(36.468506%, 22.749329%, 18.818665%)" d="M 222.683594 142.523438 L 225.277344 142.144531 C 232.980469 141.023438 240.136719 146.367188 241.257812 154.082031 C 242.382812 161.800781 237.046875 168.96875 229.34375 170.089844 L 216.070312 172.027344 C 219.535156 163.304688 221.855469 153.289062 222.683594 142.523438 Z M 213.605469 177.613281 L 230.085938 175.210938 C 240.597656 173.675781 247.902344 163.863281 246.371094 153.339844 C 244.839844 142.808594 235.042969 135.492188 224.53125 137.027344 L 222.96875 137.257812 C 223.007812 136.054688 223.027344 134.84375 223.027344 133.625 L 148.632812 133.625 C 148.292969 146.851562 149.859375 171.421875 163.414062 192.890625 C 163.414062 192.890625 143.320312 173.894531 140.328125 133.625 L 134.367188 133.625 C 134.367188 162.476562 145.003906 187.328125 160.304688 198.574219 C 159.035156 199.410156 158.140625 201.414062 158.140625 203.757812 C 158.140625 203.832031 158.148438 203.90625 158.148438 203.984375 C 138.839844 204.777344 125.265625 206.664062 125.265625 208.863281 C 125.265625 211.78125 149.195312 214.148438 178.710938 214.148438 C 208.230469 214.148438 232.15625 211.78125 232.15625 208.863281 C 232.15625 206.664062 218.570312 204.777344 199.25 203.980469 C 199.25 203.90625 199.253906 203.832031 199.253906 203.757812 C 199.253906 201.414062 198.359375 199.410156 197.089844 198.574219 C 203.59375 193.796875 209.25 186.566406 213.605469 177.613281 " fill-opacity="1" fill-rule="nonzero"/><path fill="rgb(36.468506%, 22.749329%, 18.818665%)" d="M 189.160156 64.710938 C 189.160156 64.710938 174.878906 76.554688 185.917969 101.453125 C 195.917969 124.011719 185.917969 132.378906 185.917969 132.378906 C 185.917969 132.378906 201.296875 124.714844 193.910156 103.566406 C 186.523438 82.421875 182.035156 78.722656 189.160156 64.710938 " fill-opacity="1" fill-rule="nonzero"/><path fill="rgb(36.468506%, 22.749329%, 18.818665%)" d="M 177.59375 130.894531 C 179.917969 127.089844 182.875 118.226562 175.785156 102.246094 C 170.53125 90.394531 171.015625 81.5 172.964844 75.4375 C 169.867188 81.203125 167.242188 91.5 173.941406 106.605469 C 179.066406 118.171875 178.9375 126.003906 177.59375 130.894531 " fill-opacity="1" fill-rule="nonzero"/><g fill="rgb(36.468506%, 22.749329%, 18.818665%)" fill-opacity="1"><g transform="translate(69.836063, 332.813941)"><g><path d="M 3.914062 -23.746094 C 12.375 7.914062 58.050781 7.734375 63.875 -21.835938 L 63.144531 -22.019531 C 57.777344 5.09375 18.5625 5.003906 10.371094 -25.476562 C 6.550781 -39.671875 11.28125 -58.414062 26.933594 -62.601562 C 40.035156 -66.058594 51.136719 -56.320312 56.777344 -45.039062 L 57.59375 -45.039062 L 59.6875 -53.046875 C 51.863281 -62.234375 39.214844 -66.695312 26.75 -63.328125 C 9.460938 -58.6875 -0.726562 -41.035156 3.914062 -23.746094 Z M 3.914062 -23.746094 "/></g></g></g><g fill="rgb(36.468506%, 22.749329%, 18.818665%)" fill-opacity="1"><g transform="translate(136.439338, 332.813941)"><g><path d="M 42.582031 -9.734375 C 44.21875 -4.640625 44.3125 -0.820312 43.675781 -0.820312 L 43.675781 0 L 54.320312 0 L 54.320312 -0.820312 C 52.957031 -0.820312 50.679688 -6.371094 48.316406 -13.191406 L 30.9375 -63.875 L 24.019531 -63.875 L 25.75 -58.871094 L 9.554688 -11.464844 C 6.734375 -3.277344 4.09375 -0.820312 2.730469 -0.820312 L 2.730469 0 L 10.464844 0 L 10.464844 -0.820312 C 8.097656 -0.820312 7.914062 -4.277344 10.371094 -11.191406 L 14.832031 -24.476562 C 16.105469 -28.023438 20.65625 -28.84375 23.929688 -28.570312 C 32.847656 -27.660156 39.125 -19.925781 41.855469 -11.917969 Z M 26.203125 -57.59375 L 39.578125 -18.652344 C 36.121094 -24.203125 30.753906 -28.660156 23.929688 -29.296875 C 21.292969 -29.570312 17.925781 -29.117188 15.832031 -27.207031 Z M 26.203125 -57.59375 "/></g></g></g><g fill="rgb(36.468506%, 22.749329%, 18.818665%)" fill-opacity="1"><g transform="translate(193.488868, 332.813941)"><g><path d="M 13.464844 -0.820312 C 12.921875 -0.820312 11.375 -1.910156 11.375 -7.824219 L 11.375 -35.484375 C 25.566406 -35.484375 28.84375 -32.027344 28.84375 -32.027344 L 29.664062 -32.027344 L 29.664062 -39.761719 L 28.84375 -39.761719 C 28.84375 -39.761719 25.566406 -36.394531 11.375 -36.304688 L 11.375 -63.054688 L 21.65625 -63.054688 C 30.753906 -62.054688 35.847656 -59.597656 41.398438 -56.140625 L 42.21875 -56.140625 L 42.21875 -63.875 L 2.730469 -63.875 L 2.730469 -63.054688 C 3.277344 -63.054688 4.824219 -62.054688 4.824219 -56.046875 L 4.824219 -7.824219 C 4.824219 -1.910156 3.277344 -0.820312 2.730469 -0.820312 L 2.730469 0 L 13.464844 0 Z M 13.464844 -0.820312 "/></g></g></g><g fill="rgb(36.468506%, 22.749329%, 18.818665%)" fill-opacity="1"><g transform="translate(238.436992, 332.813941)"><g><path d="M 3.914062 -23.65625 C 12.375 8.007812 58.050781 7.824219 63.964844 -21.746094 L 63.144531 -21.929688 C 57.777344 5.1875 18.5625 5.09375 10.371094 -25.386719 C 9.460938 -28.660156 9.097656 -32.117188 9.097656 -35.578125 L 11.007812 -35.578125 C 25.566406 -35.578125 41.492188 -32.117188 41.492188 -32.117188 L 42.308594 -32.117188 L 42.308594 -39.851562 L 41.492188 -39.851562 C 41.492188 -39.851562 25.566406 -36.394531 11.007812 -36.394531 L 9.191406 -36.394531 C 9.554688 -47.859375 15.195312 -59.324219 26.933594 -62.507812 C 40.125 -65.964844 51.136719 -56.230469 56.777344 -44.949219 L 57.59375 -44.949219 L 59.777344 -52.957031 C 51.953125 -62.144531 39.214844 -66.601562 26.75 -63.238281 C 9.554688 -58.597656 -0.726562 -40.945312 3.914062 -23.65625 Z M 36.757812 -80.070312 C 34.210938 -77.796875 23.65625 -67.421875 23.65625 -67.421875 L 24.019531 -66.875 C 24.019531 -66.875 36.757812 -74.246094 39.671875 -76.066406 C 42.582031 -77.886719 43.039062 -79.613281 41.945312 -80.886719 C 40.855469 -82.34375 39.308594 -82.34375 36.757812 -80.070312 Z M 36.757812 -80.070312 "/></g></g></g></svg>